<svg width="130" height="56" viewBox="0 0 130 56" fill="none" xmlns="http://www.w3.org/2000/svg">
<g clip-path="url(#clip0)">
<path d="M6.96096 49.3354V55.8752H5.68292V51.7317L5.4968 52.3058L4.02024 55.8752H2.94073L1.46416 52.3058L1.27804 51.7317V55.8752H0V49.3354H1.46416L3.32538 53.5539L3.46187 53.9408L3.61077 53.5539L5.48439 49.3354H6.96096Z" fill="#00C5CD"/>
<path d="M13.9094 49.3354V50.5336H11.4401V51.9189H13.5743V53.1295H11.4401V54.6896H13.9094V55.8877H10.1621V49.3479H13.9094V49.3354Z" fill="#00C5CD"/>
<path d="M19.3568 49.3354C20.3743 49.3354 21.1932 49.635 21.8012 50.2465C22.4092 50.8581 22.7194 51.6443 22.7194 52.6053C22.7194 53.5788 22.4092 54.3651 21.8012 54.9642C21.1932 55.5757 20.3743 55.8752 19.3568 55.8752H16.9248V49.3354H19.3568ZM18.1904 50.5336V54.6771H19.3568C20.6472 54.6771 21.3917 53.9158 21.3917 52.6053C21.3917 51.2949 20.6597 50.5336 19.3568 50.5336H18.1904Z" fill="#00C5CD"/>
<path d="M26.8635 49.3354V55.8752H25.5854V49.3354H26.8635Z" fill="#00C5CD"/>
<path d="M35.9587 51.4447H34.5565C34.3084 50.7582 33.7872 50.4088 32.9807 50.4088C32.4099 50.4088 31.9508 50.6085 31.591 51.0203C31.2436 51.4322 31.0575 51.9564 31.0575 52.5929C31.0575 53.2419 31.2312 53.766 31.591 54.1779C31.9508 54.5898 32.4223 54.7894 32.9931 54.7894C33.8369 54.7894 34.3952 54.4275 34.6434 53.6912H35.9959C35.6361 55.1514 34.6186 55.9751 32.9931 55.9751C32.0377 55.9751 31.256 55.6631 30.648 55.0141C30.04 54.3651 29.7422 53.5539 29.7422 52.5804C29.7422 51.5944 30.0524 50.7957 30.648 50.1592C31.256 49.5102 32.0377 49.1982 32.9931 49.1982C34.5814 49.2107 35.5988 50.0718 35.9587 51.4447Z" fill="#00C5CD"/>
<path d="M40.0412 49.3354V55.8752H38.7632V49.3354H40.0412Z" fill="#00C5CD"/>
<path d="M48.7022 49.3354V55.8752H47.4241L44.744 51.9189L44.4958 51.4946V55.8752H43.2178V49.3354H44.4834L47.1511 53.2918L47.4241 53.7411V49.3354H48.7022Z" fill="#00C5CD"/>
<path d="M55.1788 49.3354L57.6976 55.8752H56.3079L55.7744 54.4275H53.1811L52.6475 55.8752H51.2578L53.7767 49.3354H55.1788ZM54.4715 50.8955L54.3474 51.2574L53.5781 53.3042H55.3649L54.5956 51.2574L54.4715 50.8955Z" fill="#00C5CD"/>
<path d="M67.4629 49.6475C67.8227 49.9345 67.9964 50.3214 67.9964 50.8206C67.9964 51.245 67.8972 51.5819 67.6862 51.8315C67.4877 52.0687 67.1775 52.3058 66.7804 52.5429L66.768 52.5554L67.7359 53.5913C67.7359 53.5788 67.7483 53.5539 67.7607 53.5164C67.8475 53.2044 67.8847 52.8549 67.8351 52.493L68.9891 52.468C69.0387 52.9049 69.0139 53.3292 68.927 53.7161C68.8526 54.0281 68.7533 54.3027 68.6168 54.5523L69.8576 55.8877H68.2074L67.8227 55.4759C67.3264 55.8253 66.768 56.0125 66.098 56.0125C64.5966 56.0125 63.728 55.2762 63.728 54.1155C63.728 53.2543 64.1623 52.83 64.9192 52.3807L64.944 52.3682L64.7951 52.206C64.4105 51.7816 64.2243 51.3323 64.2243 50.883C64.2243 50.3963 64.3857 50.0094 64.7207 49.6974C65.0557 49.3854 65.5148 49.2356 66.0732 49.2356C66.6439 49.2106 67.103 49.3604 67.4629 49.6475ZM67.0658 54.6272L65.7009 53.1545C65.2666 53.3916 65.0433 53.6911 65.0433 54.0656C65.0433 54.6272 65.49 54.9142 66.16 54.9142C66.5074 54.9142 66.8052 54.8144 67.0658 54.6272ZM65.6265 51.2824L65.7133 51.3947C65.7381 51.4197 65.9119 51.5944 65.9243 51.6319L66.0235 51.7317C66.0483 51.7192 66.2221 51.6069 66.2593 51.6069C66.2965 51.5819 66.433 51.4946 66.4702 51.4571C66.6315 51.3323 66.7556 51.1576 66.7432 50.8955C66.7432 50.546 66.495 50.2964 66.1228 50.2964C65.763 50.2964 65.49 50.5336 65.49 50.8705C65.49 51.0328 65.5396 51.1576 65.6265 51.2824Z" fill="#00C5CD"/>
<path d="M79.6477 49.3354V50.5336H77.1784V51.9189H79.3126V53.1295H77.1784V54.6896H79.6477V55.8877H75.9004V49.3479H79.6477V49.3354Z" fill="#00C5CD"/>
<path d="M86.5094 51.1701H85.219C85.2065 50.6584 84.8839 50.3588 84.4248 50.3588C83.9657 50.3588 83.6928 50.6084 83.6928 51.0577C83.6928 51.2949 83.7796 51.4571 83.9285 51.5819C84.0898 51.7067 84.3876 51.8315 84.8343 51.9938C86.1992 52.4555 86.7079 53.0172 86.7079 54.0281C86.7079 54.6396 86.5094 55.1264 86.0999 55.4883C85.7029 55.8378 85.1817 56.0125 84.5489 56.0125C83.0972 56.0125 82.2906 55.1763 82.2534 53.8908H83.5439C83.5687 54.5523 83.9161 54.8768 84.5613 54.8768C85.0949 54.8768 85.4175 54.5772 85.4175 54.1404C85.4175 53.7036 85.0949 53.454 84.2635 53.1794C82.9979 52.7676 82.3899 52.2309 82.3899 51.1825C82.3899 50.6084 82.576 50.1342 82.9359 49.7722C83.3081 49.4103 83.8044 49.2356 84.4372 49.2356C85.6905 49.2106 86.4722 49.897 86.5094 51.1701Z" fill="#00C5CD"/>
<path d="M94.4508 49.3354V50.5336H92.329V55.8752H91.051V50.5336H88.9292V49.3354H94.4508Z" fill="#00C5CD"/>
<path d="M100.729 49.3354V50.5336H98.26V51.9189H100.394V53.1295H98.26V54.6896H100.729V55.8877H96.9819V49.3479H100.729V49.3354ZM100.742 47.8877L99.4139 49.0109H98.2103L99.0789 47.8877H100.742Z" fill="#00C5CD"/>
<path d="M108.646 49.3354V50.5336H106.524V55.8752H105.246V50.5336H103.124V49.3354H108.646Z" fill="#00C5CD"/>
<path d="M112.455 49.3354V55.8752H111.177V49.3354H112.455Z" fill="#00C5CD"/>
<path d="M121.55 51.4447H120.148C119.9 50.7582 119.379 50.4088 118.572 50.4088C118.001 50.4088 117.542 50.6085 117.182 51.0203C116.835 51.4322 116.649 51.9564 116.649 52.5929C116.649 53.2419 116.822 53.766 117.182 54.1779C117.542 54.5898 118.014 54.7894 118.584 54.7894C119.428 54.7894 119.987 54.4275 120.235 53.6912H121.587C121.227 55.1514 120.21 55.9751 118.584 55.9751C117.629 55.9751 116.847 55.6631 116.239 55.0141C115.631 54.3651 115.333 53.5539 115.333 52.5804C115.333 51.5944 115.644 50.7957 116.239 50.1592C116.847 49.5102 117.629 49.1982 118.584 49.1982C120.173 49.2107 121.19 50.0718 121.55 51.4447Z" fill="#00C5CD"/>
<path d="M127.481 49.3354L130 55.8752H128.61L128.077 54.4275H125.483L124.95 55.8752H123.56L126.079 49.3354H127.481ZM126.774 50.8955L126.65 51.2574L125.88 53.3042H127.667L126.898 51.2574L126.774 50.8955Z" fill="#00C5CD"/>
<path d="M12.4454 0C17.7436 0 21.9252 1.56006 25.0892 4.74259C28.2533 7.8752 29.854 11.9813 29.854 17.1108C29.854 22.2403 28.2533 26.3963 25.0892 29.5289C21.9252 32.6615 17.7436 34.2215 12.4454 34.2215H0.670039C0.297795 34.2215 0 33.922 0 33.5476V0.673947C0 0.299532 0.297795 0 0.670039 0H12.4454ZM5.44717 5.80343V28.4181C5.44717 28.7925 5.74497 29.092 6.11721 29.092H12.4454C19.8406 29.092 24.2579 24.6864 24.2579 17.1108C24.2579 9.5351 19.8778 5.12949 12.4454 5.12949H6.11721C5.74497 5.12949 5.44717 5.4415 5.44717 5.80343Z" fill="#15191F"/>
<path d="M49.8808 0.673947V33.5601C49.8808 33.9345 49.583 34.234 49.2107 34.234H45.1036C44.7314 34.234 44.4336 33.9345 44.4336 33.5601V0.673947C44.4336 0.299532 44.7314 0 45.1036 0H49.2107C49.583 0 49.8808 0.299532 49.8808 0.673947Z" fill="#15191F"/>
<path d="M79.6727 8.69891C79.4617 8.08736 78.618 8.08736 78.4071 8.69891L68.8528 33.7972C68.7535 34.0593 68.5054 34.234 68.2324 34.234H63.691C63.2195 34.234 62.8969 33.7598 63.0706 33.3105L75.9999 0.424337C76.1116 0.162247 76.3473 0 76.6327 0H81.5587C81.8317 0 82.0799 0.162247 82.1791 0.424337L95.1208 33.3105C95.2945 33.7473 94.9719 34.234 94.5004 34.234H89.959C89.686 34.234 89.4379 34.0593 89.3386 33.8097L79.6727 8.69891Z" fill="#15191F"/>
<path d="M129.504 0.673947V4.46802C129.504 4.84243 129.206 5.14197 128.834 5.14197H114.49C114.118 5.14197 113.82 5.4415 113.82 5.81591V13.8658C113.82 14.2402 114.118 14.5398 114.49 14.5398H124.813C125.186 14.5398 125.483 14.8393 125.483 15.2137V19.0078C125.483 19.3822 125.186 19.6817 124.813 19.6817H114.49C114.118 19.6817 113.82 19.9813 113.82 20.3557V33.585C113.82 33.9594 113.522 34.259 113.15 34.259H109.043C108.67 34.259 108.373 33.9594 108.373 33.585V0.673947C108.373 0.299532 108.67 0 109.043 0H128.834C129.206 0 129.504 0.299532 129.504 0.673947Z" fill="#15191F"/>
</g>
<defs>
<clipPath id="clip0">
<rect width="130" height="56" fill="white"/>
</clipPath>
</defs>
</svg>
