<svg width="137" height="36" viewBox="0 0 137 36" fill="none" xmlns="http://www.w3.org/2000/svg">
<path d="M13.1676 0C18.7743 0 23.195 1.64433 26.5374 4.9869C29.8799 8.27555 31.5781 12.602 31.5781 17.9933C31.5781 23.398 29.8799 27.7649 26.5374 31.0535C23.195 34.3422 18.7743 35.9865 13.1676 35.9865H0.700836C0.309985 36 0 35.69 0 35.2991V0.700861C0 0.309996 0.309985 0 0.700836 0H13.1676ZM5.75494 6.10558V29.8944C5.75494 30.2853 6.06493 30.5953 6.45578 30.5953H13.1542C20.9712 30.5953 25.6479 25.9723 25.6479 17.9933C25.6479 10.0277 21.0251 5.39124 13.1542 5.39124H6.46926C6.07841 5.40472 5.75494 5.71471 5.75494 6.10558Z" fill="#00C5CD"/>
<path d="M52.7647 0.700861V35.2857C52.7647 35.6765 52.4547 35.9865 52.0639 35.9865H47.7106C47.3198 35.9865 47.0098 35.6765 47.0098 35.2857V0.700861C47.0098 0.309996 47.3198 0 47.7106 0H52.0639C52.4547 0 52.7647 0.309996 52.7647 0.700861Z" fill="#00C5CD"/>
<path d="M84.2757 9.15163C84.0601 8.51816 83.1571 8.51816 82.9414 9.15163L72.8332 35.5417C72.7254 35.8113 72.4693 36 72.1728 36H67.3748C66.8761 36 66.5392 35.5013 66.7144 35.0296L80.4076 0.444777C80.502 0.175215 80.7715 0 81.0545 0H86.2704C86.5669 0 86.823 0.175215 86.9308 0.444777L100.624 35.0296C100.813 35.4878 100.462 36 99.9636 36H95.1521C94.8556 36 94.5996 35.8248 94.4917 35.5417L84.2757 9.15163Z" fill="#00C5CD"/>
<path d="M137 0.700861V4.69038C137 5.08124 136.69 5.39124 136.299 5.39124H121.11C120.719 5.39124 120.409 5.70124 120.409 6.0921V14.5563C120.409 14.9472 120.719 15.2572 121.11 15.2572H132.04C132.431 15.2572 132.741 15.5672 132.741 15.9581V19.9476C132.741 20.3385 132.431 20.6484 132.04 20.6484H121.11C120.719 20.6484 120.409 20.9584 120.409 21.3493V35.2587C120.409 35.6496 120.099 35.9596 119.708 35.9596H115.355C114.964 35.9596 114.654 35.6496 114.654 35.2587V0.700861C114.654 0.309996 114.964 0 115.355 0H136.286C136.677 0 137 0.309996 137 0.700861Z" fill="#00C5CD"/>
</svg>
