<svg width="59" height="52" viewBox="0 0 59 52" fill="none" xmlns="http://www.w3.org/2000/svg">
<g clip-path="url(#clip0)">
<path d="M45.07 0H27.36C24.4165 0.00215956 21.5493 0.935991 19.1691 2.66769C16.7889 4.39938 15.018 6.84006 14.11 9.64H13.93C10.2412 9.6584 6.70873 11.1319 4.10033 13.7403C1.49193 16.3487 0.0183983 19.8812 0 23.57L0 30.71C0.0142573 33.7135 0.9941 36.6329 2.79481 39.0368C4.59552 41.4408 7.12161 43.2019 10 44.06V49.29C10.0019 49.7278 10.1183 50.1575 10.3375 50.5364C10.5568 50.9153 10.8714 51.2302 11.25 51.45C11.63 51.6694 12.0612 51.7849 12.5 51.7849C12.9388 51.7849 13.37 51.6694 13.75 51.45L25.6 44.64H29.6C31.7472 44.6548 33.8683 44.169 35.795 43.2213C37.7217 42.2735 39.4011 40.8898 40.7 39.18L45.29 41.81C45.671 42.0265 46.1018 42.1404 46.54 42.1404C46.9782 42.1404 47.409 42.0265 47.79 41.81C48.1627 41.5844 48.4702 41.2657 48.6823 40.8852C48.8945 40.5047 49.004 40.0756 49 39.64V34.42C51.8784 33.5619 54.4045 31.8008 56.2052 29.3968C58.0059 26.9929 58.9857 24.0735 59 21.07V13.93C58.9816 10.2412 57.5081 6.70873 54.8997 4.10033C52.2913 1.49193 48.7588 0.0183983 45.07 0V0ZM29.64 39.64H24.93H24.78H24.53L24.28 39.7L24.06 39.77L23.81 39.88H23.69L15 45V42.05C15.0015 42.0334 15.0015 42.0166 15 42C15.0053 41.9134 15.0053 41.8266 15 41.74C15.0048 41.6601 15.0048 41.5799 15 41.5L14.9943 41.5041C14.9141 41.2734 14.9141 41.2734 14.8338 41.0428L14.72 40.83C14.6826 40.7597 14.6391 40.6928 14.59 40.63C14.5488 40.5602 14.4983 40.4963 14.44 40.44L14.28 40.27L14 40.08C13.9409 40.0278 13.8774 39.9809 13.81 39.94L13.6 39.82L13.37 39.72L13.15 39.65L12.89 39.59H12.8C10.6411 39.3146 8.65702 38.2602 7.22071 36.6251C5.78439 34.9899 4.99469 32.8864 5 30.71V23.57C5.00408 21.2909 5.87939 19.0997 7.44665 17.445C9.01391 15.7904 11.1545 14.7976 13.43 14.67V21.07C13.4484 24.7588 14.9219 28.2913 17.5303 30.8997C20.1387 33.5081 23.6712 34.9816 27.36 35H33.36L36.26 36.66C35.4296 37.596 34.4103 38.3455 33.2692 38.8592C32.1282 39.3728 30.8913 39.6389 29.64 39.64ZM44.21 24.75H28.21C27.547 24.75 26.9111 24.4866 26.4422 24.0178C25.9734 23.5489 25.71 22.913 25.71 22.25C25.71 21.587 25.9734 20.9511 26.4422 20.4822C26.9111 20.0134 27.547 19.75 28.21 19.75H44.21C44.873 19.75 45.5089 20.0134 45.9778 20.4822C46.4466 20.9511 46.71 21.587 46.71 22.25C46.71 22.913 46.4466 23.5489 45.9778 24.0178C45.5089 24.4866 44.873 24.75 44.21 24.75ZM44.21 15.25H28.21C27.547 15.25 26.9111 14.9866 26.4422 14.5178C25.9734 14.0489 25.71 13.413 25.71 12.75C25.71 12.087 25.9734 11.4511 26.4422 10.9822C26.9111 10.5134 27.547 10.25 28.21 10.25H44.21C44.873 10.25 45.5089 10.5134 45.9778 10.9822C46.4466 11.4511 46.71 12.087 46.71 12.75C46.71 13.413 46.4466 14.0489 45.9778 14.5178C45.5089 14.9866 44.873 15.25 44.21 15.25Z" fill="#00C5CD"/>
</g>
<defs>
<clipPath id="clip0">
<rect width="59" height="51.79" fill="white"/>
</clipPath>
</defs>
</svg>
