<svg width="27" height="28" viewBox="0 0 27 28" fill="none" xmlns="http://www.w3.org/2000/svg">
<g clip-path="url(#clip0)">
<path fill-rule="evenodd" clip-rule="evenodd" d="M13.7592 0C6.42098 0 0.498523 6.11282 0.498523 13.641C0.498523 16.2256 1.19646 18.6256 2.39291 20.6769L0 28L7.33826 25.5795C9.23265 26.6667 11.4261 27.2821 13.7592 27.2821C21.0776 27.2821 27.0199 21.1692 27.0199 13.641C27 6.11282 21.0776 0 13.7592 0ZM13.7592 24.9846C11.5259 24.9846 9.43205 24.2872 7.67725 23.0974L3.42984 24.4923L4.80576 20.3077C3.48966 18.4205 2.71196 16.1231 2.71196 13.641C2.71196 7.38462 7.65731 2.27692 13.7592 2.27692C19.8412 2.27692 24.8065 7.3641 24.8065 13.641C24.7866 19.8974 19.8412 24.9846 13.7592 24.9846ZM19.9609 16.7385C19.6219 16.5538 17.9867 15.6513 17.6876 15.5077C17.3885 15.3846 17.1691 15.3231 16.9298 15.6718C16.6905 16 16.0126 16.759 15.8131 16.9846C15.6137 17.2103 15.4143 17.2308 15.0753 17.0462C14.7363 16.8615 13.6595 16.4513 12.4033 15.2205C11.4261 14.2564 10.788 13.0872 10.6086 12.7385C10.4291 12.3897 10.6086 12.2051 10.788 12.041C10.9476 11.8974 11.147 11.6513 11.3264 11.4462C11.5059 11.241 11.5657 11.0974 11.6854 10.8718C11.805 10.6462 11.7651 10.441 11.6854 10.2564C11.5857 10.0718 10.9874 8.32821 10.7282 7.63077C10.469 6.91282 10.1898 7.0359 9.9904 7.01539C9.79099 7.01539 9.57164 6.97436 9.35229 6.95385C9.13294 6.95385 8.75406 7.01538 8.43501 7.3641C8.09601 7.71282 7.19867 8.51282 7.11891 10.2154C7.05908 11.9385 8.21566 13.641 8.37519 13.8872C8.53471 14.1128 10.5886 17.8256 13.9586 19.3641C17.3486 20.8821 17.3685 20.4308 17.9867 20.3897C18.6049 20.3487 20.0207 19.6308 20.3397 18.8308C20.6588 18.0308 20.6787 17.3333 20.599 17.1897C20.5192 17.0256 20.2999 16.9231 19.9609 16.7385Z" fill="#05C76D"/>
</g>
<defs>
<clipPath id="clip0">
<rect width="27" height="28" fill="white"/>
</clipPath>
</defs>
</svg>
