<svg width="45" height="40" viewBox="0 0 45 40" fill="none" xmlns="http://www.w3.org/2000/svg">
<g clip-path="url(#clip0)">
<path d="M44.0711 33.1138L40.993 24.8956V4.89182C40.9911 3.59893 40.4782 2.35923 39.5661 1.44291C38.654 0.526594 37.4167 0.0079425 36.1238 0L8.27809 0C6.98131 0.00199045 5.73821 0.518016 4.82125 1.43498C3.90429 2.35194 3.38826 3.59504 3.38627 4.89182V24.8956L0.323245 33.1138C0.0338097 33.8859 -0.0642177 34.7166 0.0375552 35.5348C0.139328 36.353 0.43787 37.1344 0.907621 37.812C1.37737 38.4896 2.00434 39.0433 2.73485 39.4257C3.46536 39.8081 4.27765 40.0077 5.10217 40.0075H39.2922C40.1167 40.0077 40.929 39.8081 41.6595 39.4257C42.39 39.0433 43.017 38.4896 43.4867 37.812C43.9565 37.1344 44.255 36.353 44.3568 35.5348C44.4586 34.7166 44.3606 33.8859 44.0711 33.1138ZM40.391 35.6726C40.2683 35.8503 40.1041 35.9953 39.9126 36.095C39.7211 36.1947 39.5081 36.246 39.2922 36.2446H31.6083C31.6124 36.1895 31.6124 36.1341 31.6083 36.079C31.6083 35.58 31.4101 35.1015 31.0572 34.7486C30.7044 34.3958 30.2258 34.1976 29.7268 34.1976H14.6751C14.1761 34.1976 13.6975 34.3958 13.3447 34.7486C12.9918 35.1015 12.7936 35.58 12.7936 36.079C12.7896 36.1341 12.7896 36.1895 12.7936 36.2446H5.10217C4.88596 36.2448 4.67292 36.1926 4.48125 36.0926C4.28958 35.9925 4.12496 35.8476 4.00147 35.6701C3.87798 35.4926 3.79928 35.2879 3.7721 35.0734C3.74491 34.8589 3.77004 34.641 3.84535 34.4384L6.59229 27.0931H37.8096L40.549 34.4083C40.6284 34.6145 40.6555 34.8373 40.6279 35.0565C40.6004 35.2758 40.519 35.4849 40.391 35.6651V35.6726Z" fill="#00C5CD"/>
</g>
<defs>
<clipPath id="clip0">
<rect width="44.3951" height="40" fill="white"/>
</clipPath>
</defs>
</svg>
