<?xml version="1.0" encoding="utf-8"?>
<!-- Generator: Adobe Illustrator 23.1.1, SVG Export Plug-In . SVG Version: 6.00 Build 0)  -->
<svg version="1.1" id="Capa_1" xmlns="http://www.w3.org/2000/svg" xmlns:xlink="http://www.w3.org/1999/xlink" x="0px" y="0px"
	 viewBox="0 0 362.1 358.4" style="enable-background:new 0 0 362.1 358.4;" xml:space="preserve">
<style type="text/css">
	.st0{fill:none;stroke:#EAEBFF;stroke-opacity:0.2;}
</style>
<path class="st0" d="M362.1,283.3l-23.7,27.3l-0.4-0.4c-3.2,3.3-6.4,6.7-9.6,10.1c-5.3,5.7-10.7,11.4-16.3,16.6
	c-8.9,8.2-18.4,15-29.8,18.4l0.1,0.5l-0.1-0.5c-23.4,6.9-52.2-1.9-71.2-19.6l0,0c-18.8-17.5-27.9-45-22.4-72.9
	c1.3-6.8,3.4-13.8,5.6-20.9c0.3-0.9,0.6-1.9,0.9-2.8c1.9-6.2,3.8-12.5,5.4-18.8c3.6-14.6,5.2-29.4,0-43.7
	c-5.8-16.1-17.9-23-31.3-24.3c-13.3-1.2-27.7,3.2-38.3,10c-3.1,1.9-5.8,3.7-8.4,5.4c-9.6,6.2-16.1,10.4-23.1,13.3
	c-8.8,3.7-18.4,5.2-35.8,5.7C37.1,187.4,7,158.5,7,95.9C7,64.8,20.7,27.9,42.1,0"/>
<path class="st0" d="M362.1,135.5c-5.7,8.2-12.5,15-20.2,18.5l0,0c-10.1,4.6-19.7,2.7-28.2-2.8c-8.5-5.5-15.9-14.4-21.6-23.8l0,0
	c-2.8-4.6-5-9.8-6.2-15.2c-2.2-9.3-1.4-19.1,4.2-27.1c8.5-12.1,20.6-23,32.5-30l0,0c8.9-5.2,30.1-7.1,39.5-5"/>
<path class="st0" d="M177.6,0L177.6,0c7.4,3.4,14.1,8.2,19.1,14.1c8.6,10.2,12.2,23.8,5.8,39.8c-9.7,24.1-26.7,50.1-45.3,70.7
	c-14,15.4-32.1,27.8-50.7,34.2c-18.6,6.3-37.5,6.5-53.1-2.4l0,0c-18.3-10.4-24.5-30.2-21.9-52.2l0,0C34.7,74.9,46.2,37,71.5,12.7
	L84.5,0"/>
<path class="st0" d="M88.5,106.2L88.5,106.2c1.4,2,2.5,4.2,3.2,6.6c1.2,4.1,1.1,8.5-1.2,12.2c-3.5,5.8-8.7,11.1-13.9,14.7h0
	c-3.9,2.6-8.4,3.8-12.7,3.2c-4.2-0.6-8.2-3-11-7.6h0c-3.2-5.4-3.3-11.9-1.5-18l0,0c1.3-4.1,3.1-8.5,5.4-12.4c2.4-3.9,5.2-7.2,8.6-9
	h0c4.4-2.4,8.7-1.9,12.7,0.3C82.2,98.3,85.7,102.1,88.5,106.2z"/>
<path class="st0" d="M344,91.4L344,91.4c1,1.4,1.7,3,2.2,4.6c0.8,2.9,0.8,5.9-0.8,8.5c-2.5,4-6.1,7.8-9.8,10.3l0,0
	c-2.7,1.8-5.9,2.7-8.8,2.3c-2.9-0.4-5.7-2.1-7.6-5.3l0,0c-2.2-3.8-2.3-8.3-1-12.6l0,0c0.9-2.8,2.2-5.9,3.8-8.7c1.7-2.7,3.7-5,6-6.3
	l0,0c3-1.7,6-1.3,8.8,0.2C339.5,86,342,88.6,344,91.4z"/>
</svg>
